<svg width="1009" height="578" viewBox="0 0 1009 578" fill="none" xmlns="http://www.w3.org/2000/svg">
<g clip-path="url(#clip0_22_73)">
<rect width="1009" height="578" fill="white"/>
<rect width="1021" height="578" fill="white"/>
<path fill-rule="evenodd" clip-rule="evenodd" d="M-62.001 589H269.565V588.856C253.184 558.791 234.533 489.883 290.92 454.643C304.751 446 320.181 439.277 335.655 432.535C399.059 404.912 463.213 376.962 421.152 215.215C396.935 122.09 453.74 17.919 505.999 -7H-62.001V589Z" fill="#2E2E2E"/>
<path fill-rule="evenodd" clip-rule="evenodd" d="M874 -7H504.863H504.636L504.431 -6.9018C478.124 5.70491 450.854 38.2276 433.181 79.1525C415.493 120.11 407.331 169.676 419.451 216.514C445.454 317.007 430.516 365.402 400.757 394.234C385.818 408.707 367.065 418.338 347.57 427.125C343.394 429.007 339.181 430.851 334.966 432.697C319.555 439.444 304.108 446.207 290.274 454.896C261.859 472.743 252.357 499.147 252.02 524.805C251.75 545.39 257.372 565.527 263.853 580.5H266.035C259.501 565.66 253.749 545.448 254.02 524.831C254.35 499.689 263.623 473.996 291.338 456.589C305.033 447.988 320.299 441.303 335.69 434.564L335.691 434.564L335.691 434.563C339.925 432.709 344.169 430.851 348.392 428.948C367.915 420.148 386.944 410.401 402.148 395.671C432.674 366.097 447.462 316.786 421.387 216.013C409.405 169.706 417.459 120.602 435.017 79.9454C452.542 39.3636 479.448 7.38904 505.092 -5H874V-7Z" fill="#FF5500"/>
</g>
<defs>
<clipPath id="clip0_22_73">
<rect width="1009" height="578" fill="white"/>
</clipPath>
</defs>
</svg>
