<svg width="1009" height="578" viewBox="0 0 1009 578" fill="none" xmlns="http://www.w3.org/2000/svg">
<g clip-path="url(#clip0_22_73)">
<rect width="1009" height="578" fill="white"/>
<rect width="1021" height="578" fill="white"/>
<path fill-rule="evenodd" clip-rule="evenodd" d="M-62 589H270.151V588.857C253.74 558.793 235.055 489.884 291.543 454.643C305.397 446 320.855 439.277 336.356 432.535C399.872 404.912 464.139 376.962 422.004 215.215C397.744 122.09 454.649 17.919 507.001 -7H-62V589Z" fill="#2E2E2E"/>
<path fill-rule="evenodd" clip-rule="evenodd" d="M868.999 -7H504.032H503.803L503.596 -6.89987C477.582 5.70877 450.62 38.2333 433.147 79.1563C415.66 120.113 407.591 169.676 419.573 216.511C445.283 317.008 430.513 365.406 401.09 394.238C386.321 408.71 367.781 418.34 348.507 427.126C344.379 429.008 340.215 430.852 336.049 432.697L336.048 432.698L336.047 432.698C320.809 439.445 305.535 446.209 291.856 454.899C263.759 472.747 254.366 499.152 254.034 524.805C253.767 545.389 259.326 565.527 265.734 580.5H267.912C261.452 565.659 255.766 545.448 256.033 524.831C256.36 499.684 265.53 473.992 292.929 456.587C306.468 447.986 321.561 441.302 336.777 434.563L336.778 434.563C340.965 432.708 345.161 430.85 349.337 428.946C368.64 420.146 387.456 410.398 402.489 395.667C432.67 366.093 447.29 316.785 421.51 216.016C409.663 169.706 417.627 120.599 434.986 79.9416C452.313 39.36 478.915 7.38851 504.263 -5H868.999V-7Z" fill="#FF5500"/>
</g>
<defs>
<clipPath id="clip0_22_73">
<rect width="1009" height="578" fill="white"/>
</clipPath>
</defs>
</svg>
