<svg width="1009" height="578" viewBox="0 0 1009 578" fill="none" xmlns="http://www.w3.org/2000/svg">
<g clip-path="url(#clip0_22_73)">
<rect width="1009" height="578" fill="white"/>
<rect x="-1" width="1021" height="578" fill="#2E2E2E"/>
<g filter="url(#filter0_f_22_73)">
<ellipse cx="104.5" cy="550.5" rx="344.5" ry="388.5" fill="#AD5900"/>
</g>
<path fill-rule="evenodd" clip-rule="evenodd" d="M-1 589H352.165V588.857C334.716 558.793 314.848 489.884 374.91 454.643C389.641 446 406.076 439.277 422.559 432.535C490.093 404.912 558.426 376.962 513.625 215.215C487.831 122.09 548.335 17.919 604 -7H-1V589Z" fill="#2E2E2E"/>
<path fill-rule="evenodd" clip-rule="evenodd" d="M588.177 0C565.551 16.315 543.867 43.4346 528.684 75.6973C509.332 116.819 500.366 166.656 513.661 213.806C527.807 263.971 530.781 301.027 526.237 329.074C521.704 357.051 509.678 376.154 493.589 390.458C477.435 404.82 457.121 414.404 435.883 423.188C431.352 425.062 426.774 426.901 422.189 428.743C405.386 435.494 388.477 442.287 373.342 451.01C342.056 469.042 331.535 495.797 331.164 521.789C330.869 542.363 336.921 562.462 343.946 577.5H348.376C341.217 562.733 334.868 542.476 335.163 521.846C335.518 497.039 345.458 471.697 375.339 454.475C390.205 445.908 406.765 439.253 423.528 432.518L423.528 432.517L423.529 432.517L423.53 432.517L423.531 432.516C428.153 430.659 432.79 428.796 437.412 426.884C458.693 418.082 479.553 408.289 496.247 393.447C513.005 378.548 525.502 358.623 530.185 329.714C534.858 300.876 531.742 263.189 517.511 212.721C504.542 166.726 513.248 117.893 532.304 77.4006C548.384 43.2317 571.71 15.2567 595.257 0H588.177Z" fill="#EE7A00"/>
</g>
<defs>
<filter id="filter0_f_22_73" x="-1040" y="-638" width="2289" height="2377" filterUnits="userSpaceOnUse" color-interpolation-filters="sRGB">
<feFlood flood-opacity="0" result="BackgroundImageFix"/>
<feBlend mode="normal" in="SourceGraphic" in2="BackgroundImageFix" result="shape"/>
<feGaussianBlur stdDeviation="400" result="effect1_foregroundBlur_22_73"/>
</filter>
<clipPath id="clip0_22_73">
<rect width="1009" height="578" fill="white"/>
</clipPath>
</defs>
</svg>
