<svg width="1009" height="578" viewBox="0 0 1009 578" fill="none" xmlns="http://www.w3.org/2000/svg">
<g clip-path="url(#clip0_22_73)">
<rect width="1009" height="578" fill="white"/>
<rect width="1021" height="578" fill="#2E2E2E"/>
<g filter="url(#filter0_f_22_73)">
<ellipse cx="104.5" cy="550.5" rx="344.5" ry="388.5" fill="#A23600"/>
</g>
<path fill-rule="evenodd" clip-rule="evenodd" d="M-62 589H291.165V588.857C273.716 558.793 253.848 489.884 313.91 454.643C328.641 446 345.076 439.277 361.559 432.535C429.093 404.912 497.426 376.962 452.625 215.215C426.831 122.09 487.335 17.919 543 -7H-62V589Z" fill="#2E2E2E"/>
<path fill-rule="evenodd" clip-rule="evenodd" d="M526.024 0C503.397 16.315 481.714 43.4346 466.531 75.6973C447.179 116.819 438.213 166.656 451.508 213.806C465.653 263.971 468.628 301.027 464.084 329.074C459.551 357.051 447.525 376.154 431.436 390.458C415.282 404.82 394.968 414.404 373.73 423.188C369.198 425.062 364.621 426.901 360.036 428.743C343.233 435.494 326.323 442.287 311.189 451.01C279.902 469.042 269.382 495.797 269.01 521.789C268.716 542.363 274.767 562.462 281.793 577.5H286.222C279.064 562.733 272.715 542.476 273.01 521.846C273.365 497.039 283.305 471.697 313.186 454.475C328.051 445.908 344.612 439.253 361.375 432.518L361.375 432.517L361.376 432.517L361.377 432.517L361.378 432.516C366 430.659 370.637 428.796 375.258 426.884C396.54 418.082 417.4 408.289 434.093 393.447C450.852 378.548 463.348 358.623 468.032 329.714C472.704 300.876 469.589 263.189 455.358 212.721C442.389 166.726 451.094 117.893 470.15 77.4006C486.23 43.2317 509.556 15.2567 533.104 0H526.024Z" fill="#FF5500"/>
</g>
<defs>
<filter id="filter0_f_22_73" x="-1040" y="-638" width="2289" height="2377" filterUnits="userSpaceOnUse" color-interpolation-filters="sRGB">
<feFlood flood-opacity="0" result="BackgroundImageFix"/>
<feBlend mode="normal" in="SourceGraphic" in2="BackgroundImageFix" result="shape"/>
<feGaussianBlur stdDeviation="400" result="effect1_foregroundBlur_22_73"/>
</filter>
<clipPath id="clip0_22_73">
<rect width="1009" height="578" fill="white"/>
</clipPath>
</defs>
</svg>
