<svg width="90" height="90" viewBox="0 0 90 90" fill="none" xmlns="http://www.w3.org/2000/svg">
<path d="M82.0199 3.396H7.98789C5.45213 3.396 3.39648 5.45164 3.39648 7.9874V82.0194C3.39648 84.5552 5.45213 86.6108 7.98789 86.6108H82.0199C84.5557 86.6108 86.6113 84.5552 86.6113 82.0194V7.9874C86.6113 5.45164 84.5557 3.396 82.0199 3.396Z" fill="#3D5A98"/>
<path d="M60.8059 86.6037V54.3795H71.6199L73.2371 41.8217H60.8059V33.806C60.8059 30.1709 61.8184 27.6888 67.0285 27.6888H73.6801V16.4388C70.4592 16.1032 67.2223 15.9436 63.984 15.9607C54.4074 15.9607 47.8121 21.7967 47.8121 32.5615V41.8217H36.998V54.3795H47.8121V86.6037H60.8059Z" fill="white"/>
</svg>
