<svg width="90" height="90" viewBox="0 0 90 90" fill="none" xmlns="http://www.w3.org/2000/svg">
<g clip-path="url(#clip0_17_169)">
<path d="M66.6986 32.4063C73.2651 36.5479 81.3095 38.9847 89.9977 38.9847V24.234C88.3533 24.2343 86.7134 24.0829 85.1046 23.7822V35.3931C76.4172 35.3931 68.3738 32.9566 61.8059 28.8153V58.9175C61.8059 73.9764 47.9698 86.1829 30.9036 86.1829C24.5357 86.1829 18.6168 84.4844 13.7002 81.5712C19.3118 86.6338 27.1376 89.7742 35.7952 89.7742C52.8629 89.7742 66.6993 77.5677 66.6993 62.5082V32.4063H66.6986ZM72.7349 17.5247C69.3789 14.29 67.1753 10.1096 66.6986 5.48796V3.59082H62.0618C63.229 9.46472 67.2105 14.483 72.7349 17.5247ZM24.4946 70.0158C22.6197 67.8469 21.6062 65.1933 21.6107 62.4651C21.6107 55.5779 27.9392 49.9936 35.747 49.9936C37.2019 49.9929 38.6482 50.19 40.035 50.578V35.4974C38.4143 35.3015 36.7789 35.2181 35.1441 35.2488V46.9866C33.7566 46.5984 32.3095 46.4014 30.854 46.4026C23.0465 46.4026 16.7184 51.9863 16.7184 58.8744C16.7184 63.745 19.8814 67.9616 24.4946 70.0158Z" fill="#FF004F"/>
<path d="M61.8056 28.815C68.3739 32.9563 76.4166 35.3928 85.1044 35.3928V23.7819C80.2549 22.8704 75.962 20.6346 72.7343 17.5247C67.2095 14.4827 63.2288 9.46441 62.0616 3.59082H49.8824V62.5076C49.8546 69.3762 43.537 74.9376 35.7461 74.9376C31.1554 74.9376 27.0765 73.0069 24.4936 70.0155C19.8811 67.9616 16.7177 63.7446 16.7177 58.8747C16.7177 51.9872 23.0459 46.4029 30.8534 46.4029C32.3493 46.4029 33.791 46.6083 35.1435 46.987V35.2491C18.3768 35.5548 4.89258 47.6421 4.89258 62.5079C4.89258 69.9289 8.25035 76.6562 13.7003 81.5718C18.6169 84.4844 24.5354 86.1835 30.9036 86.1835C47.9702 86.1835 61.806 73.9761 61.806 58.9175V28.8153L61.8056 28.815Z" fill="black"/>
<path d="M85.1045 23.7817V20.6429C80.7314 20.6487 76.4447 19.5682 72.7344 17.5249C76.0187 20.6972 80.3434 22.8849 85.1045 23.7823V23.7817ZM62.0613 3.59069C61.9501 3.02946 61.8647 2.46448 61.8054 1.89714V0H44.9888V58.9174C44.962 65.7853 38.6445 71.3467 30.8531 71.3467C28.6443 71.3496 26.4658 70.8939 24.4934 70.0163C27.0763 73.0071 31.1551 74.9374 35.7458 74.9374C43.5364 74.9374 49.8547 69.3766 49.8821 62.5081V3.591H62.0613V3.59069ZM35.1443 35.249V31.9069C33.7391 31.7373 32.3224 31.6525 30.9041 31.653C13.8357 31.653 0 43.8601 0 58.9174C0 68.3578 5.43762 76.6775 13.7007 81.5713C8.25082 76.6561 4.89305 69.9284 4.89305 62.5078C4.89305 47.6423 18.3769 35.5547 35.1443 35.249Z" fill="#00F2EA"/>
</g>
<defs>
<clipPath id="clip0_17_169">
<rect width="90" height="90" fill="white"/>
</clipPath>
</defs>
</svg>
